<?xml version="1.0" encoding="UTF-8" standalone="no"?>
<!-- Created with Inkscape (http://www.inkscape.org/) -->

<svg
   xmlns:dc="http://purl.org/dc/elements/1.1/"
   xmlns:cc="http://creativecommons.org/ns#"
   xmlns:rdf="http://www.w3.org/1999/02/22-rdf-syntax-ns#"
   xmlns:svg="http://www.w3.org/2000/svg"
   xmlns="http://www.w3.org/2000/svg"
   xmlns:sodipodi="http://sodipodi.sourceforge.net/DTD/sodipodi-0.dtd"
   xmlns:inkscape="http://www.inkscape.org/namespaces/inkscape"
   width="16px"
   height="16px"
   id="svg3161"
   version="1.1"
   inkscape:version="0.48.3.1 r9886"
   sodipodi:docname="lamp.svg">
  <defs
     id="defs3163" />
  <sodipodi:namedview
     id="base"
     pagecolor="#ffffff"
     bordercolor="#666666"
     borderopacity="1.0"
     inkscape:pageopacity="0.0"
     inkscape:pageshadow="2"
     inkscape:zoom="31.392433"
     inkscape:cx="9.3386083"
     inkscape:cy="5.26554"
     inkscape:current-layer="layer1"
     showgrid="true"
     inkscape:grid-bbox="true"
     inkscape:document-units="px"
     inkscape:window-width="1280"
     inkscape:window-height="929"
     inkscape:window-x="0"
     inkscape:window-y="31"
     inkscape:window-maximized="1"
     inkscape:snap-global="false" />
  <metadata
     id="metadata3166">
    <rdf:RDF>
      <cc:Work
         rdf:about="">
        <dc:format>image/svg+xml</dc:format>
        <dc:type
           rdf:resource="http://purl.org/dc/dcmitype/StillImage" />
        <dc:title />
      </cc:Work>
    </rdf:RDF>
  </metadata>
  <g
     id="layer1"
     inkscape:label="Layer 1"
     inkscape:groupmode="layer">
    <path
       inkscape:export-ydpi="11.050432"
       inkscape:export-xdpi="11.050432"
       inkscape:export-filename="/home/oso/mikkonev/Projekti1/lamp_on.png"
       sodipodi:nodetypes="cssssc"
       inkscape:connector-curvature="0"
       id="path3050-9"
       d="m 7.8148488,11.649812 c 0.9936044,0.08657 2.5960642,0.143128 2.6228822,-0.06514 0.0612,-0.475302 0.284227,-0.974269 1.01502,-1.577322 0.352815,-0.2911432 0.369758,-0.336947 0.842901,-0.7535539 1.113775,-0.9806778 1.678944,-3.0339413 1.678944,-3.9339388 0,-2.4482506 -2.442749,-4.7297958 -6.2276013,-4.7297958"
       style="fill:#ffffff;fill-opacity:1;stroke:#000000;stroke-width:1.19554889;stroke-miterlimit:4;stroke-dasharray:none;stroke-dashoffset:0" />
    <rect
       style="fill:none;stroke:none"
       id="rect4267"
       width="16.076227"
       height="15.332265"
       x="-0.023723878"
       y="-0.020595398"
       inkscape:export-filename="/home/oso/mikkonev/Projekti1/lamp_on.png"
       inkscape:export-xdpi="11.050432"
       inkscape:export-ydpi="11.050432" />
    <path
       style="fill:none;stroke:#000000;stroke-width:0.80000001;stroke-linecap:butt;stroke-linejoin:miter;stroke-miterlimit:4;stroke-opacity:1;stroke-dasharray:none"
       d="m 5.0371067,11.651525 c -1.404327,0.159129 -1.3619551,1.931246 0.030827,2.065694 -1.3600109,0.380122 -1.438184,1.889129 0.3555,1.829802 m 5.1685273,-0.07059 c 2.162555,0.02841 1.723582,-1.755928 0.67986,-1.915746 1.107555,-0.467691 0.624,-2.179391 -0.46743,-1.968484 l -0.02736,-0.01931"
       id="path3790-3"
       inkscape:connector-curvature="0"
       sodipodi:nodetypes="ccccccc"
       inkscape:export-filename="/home/oso/mikkonev/Projekti1/lamp_on.png"
       inkscape:export-xdpi="11.050432"
       inkscape:export-ydpi="11.050432" />
    <path
       style="fill:none;stroke:#000000;stroke-width:0.40000001;stroke-linecap:butt;stroke-linejoin:miter;stroke-miterlimit:4;stroke-opacity:1;stroke-dasharray:none"
       d="m 5.3724651,13.677464 c 2.477319,0.166043 3.9009975,0.09117 5.8230949,-0.131115"
       id="path3792-1"
       inkscape:connector-curvature="0"
       sodipodi:nodetypes="cc"
       inkscape:export-filename="/home/oso/mikkonev/Projekti1/lamp_on.png"
       inkscape:export-xdpi="11.050432"
       inkscape:export-ydpi="11.050432" />
    <path
       style="fill:none;stroke:#000000;stroke-width:0.80000001;stroke-linecap:butt;stroke-linejoin:miter;stroke-miterlimit:4;stroke-opacity:1;stroke-dasharray:none"
       d="m 5.2229613,15.522653 c 1.3822853,0.107997 3.2606034,0.09202 5.4997607,-0.04118"
       id="path3794-0"
       inkscape:connector-curvature="0"
       sodipodi:nodetypes="cc"
       inkscape:export-filename="/home/oso/mikkonev/Projekti1/lamp_on.png"
       inkscape:export-xdpi="11.050432"
       inkscape:export-ydpi="11.050432" />
    <path
       style="fill:#ffffff;fill-opacity:1;stroke:#000000;stroke-width:0.29952133;stroke-miterlimit:4;stroke-dasharray:none;stroke-dashoffset:0"
       id="path3971-4-9"
       d="m 7.8277882,11.899778 c -0.00618,-0.0079 -0.012787,-0.01542 -0.018476,-0.02359 -0.00926,-0.01328 -0.017339,-0.02728 -0.026279,-0.04072 -0.058097,-0.087 -0.087476,-0.122288 -0.1391081,-0.22601 C 7.591853,11.504806 7.5208499,11.308535 7.4823628,11.207364 7.3930453,10.869107 7.3083874,10.529405 7.2022726,10.195439 7.1771852,10.116473 7.1519894,10.037467 7.1231523,9.959679 7.0962765,9.8872071 7.064476,9.8164818 7.0351408,9.7448784 6.9541672,9.5861366 6.8754051,9.426269 6.7861417,9.271538 c -0.01528,-0.02651 -0.031644,-0.052385 -0.047466,-0.07858 0,0 -0.1614046,-0.034985 -0.1614046,-0.034985 l 0,0 c 0.037712,0.030954 0.078139,0.059165 0.1132184,0.092832 0.087514,0.083996 0.1767606,0.1949512 0.2380648,0.2969769 0.037767,0.062879 0.066365,0.1303813 0.099543,0.1955709 0.029367,0.07161 0.061131,0.1423287 0.088011,0.2148015 0.02888,0.077794 0.054022,0.1567927 0.079126,0.2357597 0.1061148,0.333968 0.1907725,0.67367 0.28009,1.011927 0.0059,0.04348 0.045028,0.311896 0.045082,0.376852 4.33e-5,0.04136 -0.010512,0.08213 -0.015605,0.123204 -0.0027,0.02249 -0.0059,0.04495 -0.00818,0.0675 -0.00108,0.01148 -5.419e-4,0.02309 -0.00216,0.03455 -5.417e-4,0.0063 -0.00325,0.01241 -0.00433,0.01862 0,0 0.3378128,0.07321 0.3378128,0.07321 z"
       inkscape:connector-curvature="0"
       inkscape:export-filename="/home/oso/mikkonev/Projekti1/lamp_on.png"
       inkscape:export-xdpi="11.050432"
       inkscape:export-ydpi="11.050432" />
    <rect
       inkscape:export-ydpi="11.050432"
       inkscape:export-xdpi="11.050432"
       inkscape:export-filename="/home/oso/mikkonev/Projekti1/lamp_on.png"
       y="-0.020595398"
       x="-0.023723878"
       height="15.332265"
       width="16.076227"
       id="rect3048"
       style="fill:none;stroke:none" />
    <path
       inkscape:export-ydpi="11.050432"
       inkscape:export-xdpi="11.050432"
       inkscape:export-filename="/home/oso/mikkonev/Projekti1/lamp_on.png"
       sodipodi:nodetypes="cssssc"
       inkscape:connector-curvature="0"
       id="path3050"
       d="M 7.9456435,11.657433 C 6.9895902,11.743913 5.4476917,11.800402 5.4218878,11.592368 5.3629924,11.117594 5.1484025,10.619181 4.4452276,10.016798 4.1057474,9.7259786 4.0894443,9.6802256 3.634183,9.2640817 2.5625008,8.2844937 2.0186909,6.2335115 2.0186909,5.3345139 c 0,-2.4455301 2.3504306,-4.72454021 5.9922422,-4.72454021"
       style="fill:#ffffff;fill-opacity:1;stroke:#000000;stroke-width:1.19408929;stroke-miterlimit:4;stroke-dasharray:none;stroke-dashoffset:0" />
    <path
       inkscape:export-ydpi="11.050432"
       inkscape:export-xdpi="11.050432"
       inkscape:export-filename="/home/oso/mikkonev/Projekti1/lamp_on.png"
       inkscape:connector-curvature="0"
       d="m 8.2646836,11.229607 c 0.012597,-0.01611 0.02608,-0.03145 0.037684,-0.0481 0.018886,-0.02711 0.035253,-0.05564 0.053595,-0.08304 0.1184867,-0.177414 0.1784081,-0.24939 0.2837107,-0.460932 C 8.7458682,10.424091 8.8906848,10.023797 8.96918,9.817454 9.1513439,9.1275578 9.3240049,8.4347359 9.5404255,7.7536084 9.5915876,7.5925487 9.6429789,7.4314259 9.7017942,7.2727729 9.7566099,7.1249718 9.8214699,6.9807214 9.881292,6.8346858 c 0.165148,-0.323743 0.325782,-0.6497936 0.507835,-0.9653789 0.03116,-0.053961 0.06453,-0.1068375 0.0968,-0.1602644 0,0 0.329196,-0.071352 0.329196,-0.071352 l 0,0 C 10.738213,5.7008235 10.655762,5.7583479 10.584218,5.827022 10.405736,5.9983321 10.223705,6.2246152 10.098687,6.4326974 10.02166,6.5609374 9.9633349,6.6986104 9.8956581,6.8315788 9.8358756,6.9776095 9.7709927,7.121857 9.7161601,7.2696541 9.6572567,7.4283171 9.6059861,7.5894344 9.5547927,7.750492 9.3383708,8.4316195 9.165711,9.1244408 8.9835471,9.8143189 c -0.012058,0.088675 -0.091834,0.6361181 -0.091942,0.7685931 -8.81e-5,0.08437 0.021439,0.167504 0.031821,0.251274 0.00555,0.04587 0.012058,0.09168 0.016688,0.137659 0.00217,0.0234 0.00111,0.0471 0.00446,0.07047 0.00111,0.01284 0.00663,0.02531 0.0088,0.03798 0,0 -0.6889705,0.149311 -0.6889705,0.149311 z"
       id="path3060"
       style="fill:#ffffff;fill-opacity:1;stroke:#000000;stroke-width:0.7;stroke-miterlimit:4;stroke-dasharray:none;stroke-dashoffset:0" />
    <path
       inkscape:export-ydpi="11.050432"
       inkscape:export-xdpi="11.050432"
       inkscape:export-filename="/home/oso/mikkonev/Projekti1/lamp_on.png"
       inkscape:connector-curvature="0"
       d="m 7.6161308,11.212056 c -0.012366,-0.01581 -0.0256,-0.03088 -0.036987,-0.04722 -0.018537,-0.02658 -0.034713,-0.05462 -0.052609,-0.08153 C 7.4102269,10.909144 7.3514117,10.838498 7.248047,10.630853 7.1438015,10.421345 7.0016571,10.028422 6.9246082,9.8258837 6.7457992,9.1487124 6.5763188,8.4686459 6.3638827,7.8000641 6.313659,7.6419787 6.2632184,7.4838128 6.2054882,7.3280856 6.1516843,7.1830007 6.0880214,7.0414125 6.0292939,6.8980664 5.8671891,6.5802739 5.7095116,6.2602278 5.5308112,5.9504646 5.5002214,5.8973934 5.4674625,5.8455922 5.4357874,5.7931518 c 0,0 -0.3231232,-0.07004 -0.3231232,-0.07004 l 0,0 c 0.075497,0.061968 0.1564299,0.1184453 0.2266569,0.1858447 0.1751983,0.1681553 0.3538651,0.3902816 0.476593,0.5945316 0.075607,0.1258812 0.1328593,0.2610163 0.1992796,0.3915223 0.058791,0.1433593 0.1223802,0.2849343 0.1761931,0.4300209 0.057817,0.1557393 0.1081476,0.3138905 0.158406,0.4719781 0.2124362,0.6685858 0.3819162,1.3486502 0.5607249,2.0258215 0.011811,0.08705 0.090143,0.6243981 0.090253,0.7544371 8.67e-5,0.08279 -0.021044,0.16442 -0.03124,0.246647 -0.00541,0.04502 -0.011811,0.08999 -0.016377,0.135137 -0.00216,0.02299 -0.00108,0.04622 -0.00431,0.06917 -0.00108,0.0126 -0.00651,0.02484 -0.00867,0.03728 0,0 0.6762829,0.146561 0.6762829,0.146561 z"
       id="path3062"
       style="fill:#ffffff;fill-opacity:1;stroke:#000000;stroke-width:0.7;stroke-miterlimit:4;stroke-dasharray:none;stroke-dashoffset:0" />
    <path
       style="fill:#4d4d4d;fill-opacity:1;stroke:none"
       d="M 5.6854627,13.474368 C 5.3757474,13.455513 5.0615271,13.424522 4.9871954,13.405499 4.4556846,13.269477 4.185926,12.840004 4.370257,12.423293 c 0.0988,-0.223355 0.2535761,-0.347957 0.5493641,-0.442268 0.1725443,-0.05502 0.2217608,-0.05545 0.3306096,-0.0029 0.2114846,0.102033 0.9864229,0.14498 1.8117496,0.100405 0.4749452,-0.02565 1.0670736,-0.02482 1.5673,0.0022 0.8995112,0.04857 1.7415137,-8.32e-4 1.9625877,-0.115154 0.07407,-0.0383 0.235478,-0.06964 0.358693,-0.06964 0.177731,0 0.253938,0.02517 0.368759,0.121782 0.345183,0.290453 0.362089,0.826666 0.0354,1.122712 -0.180618,0.163675 -0.274374,0.190133 -0.942889,0.266086 -0.7335547,0.08334 -3.7588077,0.126803 -4.7263663,0.0679 z"
       id="path3794"
       inkscape:connector-curvature="0" />
    <path
       style="fill:#cccccc;fill-opacity:1;stroke:none"
       d="M 6.0104725,15.268987 C 4.9194668,15.228972 4.7242114,15.196651 4.5162239,15.021641 4.2074223,14.761801 4.4163986,14.332245 4.9754015,14.077789 l 0.2820909,-0.128407 2.2074258,-0.0045 c 1.7431694,-0.0036 2.3461999,-0.02034 2.8672628,-0.07966 0.588187,-0.06695 0.684128,-0.0679 0.883532,-0.0087 0.394417,0.117129 0.596482,0.350536 0.596482,0.689 0,0.378535 -0.332462,0.565843 -1.131905,0.63771 -0.490909,0.04413 -3.180713,0.143286 -3.5081936,0.129323 -0.08672,-0.0037 -0.609451,-0.02329 -1.1616239,-0.04354 z"
       id="path3796"
       inkscape:connector-curvature="0" />
    <path
       style="fill:#ffffff;fill-opacity:1;stroke:none"
       d="M 5.3475914,13.424637 C 5.1493736,13.401228 4.9101758,13.348238 4.8160407,13.306882 4.6178671,13.21982 4.3932542,12.981874 4.3512452,12.814497 c -0.042794,-0.170505 0.062287,-0.467163 0.2165065,-0.611226 0.2114331,-0.197508 0.433614,-0.245039 0.7933774,-0.169728 0.2365375,0.04952 0.7986887,0.06298 2.5993337,0.06224 2.0393904,-8.38e-4 2.3250162,-0.0096 2.5422112,-0.07789 0.34036,-0.107035 0.636633,-0.100581 0.786277,0.01713 0.348327,0.273994 0.348426,0.84421 1.8e-4,1.118129 -0.156935,0.123445 -0.346996,0.171002 -0.918534,0.229834 -0.6204728,0.06387 -4.5584191,0.09653 -5.0230195,0.04166 l 1.39e-5,0 z"
       id="path3798"
       inkscape:connector-curvature="0" />
    <path
       style="fill:#ffffff;fill-opacity:1;stroke:none"
       d="M 5.5305487,15.223665 C 5.019262,15.192888 4.8644438,15.16691 4.6971328,15.083824 4.4324718,14.952392 4.3511939,14.796599 4.4393275,14.589664 4.5228397,14.393579 4.6609681,14.271785 4.9877679,14.106076 l 0.2697245,-0.136768 1.9222826,-5.7e-4 c 1.0572554,-3.14e-4 2.2330473,-0.02345 2.6128714,-0.05142 1.1368326,-0.0837 1.3809036,-0.07735 1.6046086,0.04172 0.236459,0.125865 0.369498,0.332223 0.369722,0.573477 2.71e-4,0.305412 -0.186408,0.464499 -0.661695,0.563853 -0.648958,0.13566 -4.1193128,0.214899 -5.5747333,0.127288 l 0,0 z"
       id="path3800"
       inkscape:connector-curvature="0" />
    <path
       style="fill:#ffff00;fill-opacity:1;stroke:none"
       d="M 5.7922401,11.008266 C 5.658726,10.594885 5.2871914,10.07285 4.858552,9.6963631 4.3872981,9.2824468 3.7114266,8.5946941 3.558452,8.3734086 3.1309798,7.7550481 2.6973793,6.6173494 2.5685691,5.7761138 2.2794518,3.887941 3.6003405,2.0651303 5.7869502,1.334786 6.7537957,1.0118523 7.6977948,0.93164687 8.8117881,1.0777854 c 1.4052709,0.1843497 2.6444349,0.7499891 3.4854399,1.5909942 0.702397,0.7023967 1.100644,1.5328819 1.155179,2.4089529 0.0535,0.8594905 -0.389574,2.2737397 -0.99985,3.1914032 -0.183287,0.2756059 -0.515561,0.6129228 -1.220171,1.2386883 -0.696438,0.618509 -0.936859,0.916357 -1.13366,1.404448 -0.06111,0.151555 -0.1294267,0.270811 -0.1626542,0.283925 -0.03151,0.01244 -0.1739295,0.02362 -0.3164868,0.02485 l -0.2591952,0.0022 -0.034431,-0.199092 C 9.2579154,10.630734 9.2559401,10.565369 9.3016517,10.21986 9.3506288,9.8496682 9.4332296,9.5138901 9.7370003,8.4501373 10.135265,7.0554827 10.363294,6.5748098 10.85349,6.0966353 10.956885,5.995776 11.041481,5.9051774 11.041481,5.8953056 c 0,-0.00987 -0.06552,-0.1534828 -0.145611,-0.3191352 L 10.750259,5.2749841 10.505648,5.3284448 C 10.214815,5.3920079 10.227787,5.3766207 9.8328724,6.1265168 9.3904617,6.9666027 9.20149,7.5017982 8.7643522,9.1527238 8.5801374,9.8484427 8.3570629,10.41226 8.1254043,10.767656 L 7.946801,11.041657 7.8199478,10.853742 C 7.5247407,10.416433 7.3274326,9.9224918 7.0941458,9.0367659 6.8810079,8.2275381 6.6361183,7.4191579 6.4971959,7.0662337 6.3840285,6.7787389 6.0059795,6.0271282 5.7895381,5.6593182 5.6751309,5.4648997 5.6719853,5.4625125 5.4828164,5.4265547 5.3776956,5.4065732 5.2671328,5.3830768 5.2371214,5.3743406 5.1944406,5.3619166 5.1476667,5.4279806 5.0223807,5.677642 l -0.1601746,0.3191852 0.1135401,0.088736 c 0.3012422,0.2354326 0.6274136,0.7469036 0.859436,1.347686 0.2390806,0.6190584 0.7286817,2.4492753 0.7710107,2.8821751 0.023185,0.237118 -0.023619,0.797455 -0.073329,0.877887 -0.010189,0.01649 -0.1653724,0.02998 -0.3448513,0.02998 l -0.3263255,0 -0.069447,-0.21502 z"
       id="path3804"
       inkscape:connector-curvature="0" />
  </g>
</svg>
